<?xml version="1.0" encoding="UTF-8"?>
<!DOCTYPE svg PUBLIC "-//W3C//DTD SVG 1.1//EN" "http://www.w3.org/Graphics/SVG/1.1/DTD/svg11.dtd">
<!-- Creator: CorelDRAW X8 -->
<svg xmlns="http://www.w3.org/2000/svg" xml:space="preserve" width="420mm" height="297mm" version="1.1" style="shape-rendering:geometricPrecision; text-rendering:geometricPrecision; image-rendering:optimizeQuality; fill-rule:evenodd; clip-rule:evenodd"
viewBox="0 0 42000 29700"
 xmlns:xlink="http://www.w3.org/1999/xlink">
 <defs>
  <style type="text/css">
   <![CDATA[
    .fil1 {fill:#4D4D4D}
    .fil0 {fill:gray}
    .fil2 {fill:#E6E6E6}
    .fil3 {fill:#4D4D4D;fill-rule:nonzero}
   ]]>
  </style>
 </defs>
 <g id="Camada_x0020_1">
  <metadata id="CorelCorpID_0Corel-Layer"/>
  <path class="fil0" d="M29287 15901c-473,-244 -703,-793 -542,-1301 160,-508 662,-827 1190,-755l926 -1800 -926 -1801c-528,72 -1030,-247 -1190,-755 -161,-508 69,-1057 542,-1301 474,-244 1054,-111 1374,315 321,426 288,1020 -78,1408l688 1337 4226 -8213 -15938 0 7612 13265 -6768 4754 15094 0 -4226 -8213 -688 1337c366,388 399,982 78,1408 -320,426 -900,559 -1374,315z"/>
  <path class="fil1" d="M17995 5270l-5786 10277 -1719 -4088 7505 -6189zm1564 -2235l-9951 8207 2004 4765 8791 5047 6768 -4754 -7612 -13265zm-6499 12485l2869 -5095 3177 5188 -6046 -93zm6909 106l-3304 -5396 4957 -2136 4374 7624 -6027 -92zm1288 -8168l-4828 2080 2982 -5297 1846 3217zm-7748 8798l12190 186 -5335 3749 -6855 -3935z"/>
  <path class="fil2" d="M29788 8796c-202,0 -365,163 -365,365 0,201 163,364 365,364 201,0 364,-163 364,-364 0,-202 -163,-365 -364,-365z"/>
  <path class="fil2" d="M29788 14564c-202,0 -365,163 -365,365 0,201 163,364 365,364 201,0 364,-163 364,-364 0,-202 -163,-365 -364,-365z"/>
  <path class="fil1" d="M29788 8796c-202,0 -365,163 -365,365 0,201 163,364 365,364 201,0 364,-163 364,-364 0,-202 -163,-365 -364,-365z"/>
  <path class="fil1" d="M29788 14564c-202,0 -365,163 -365,365 0,201 163,364 365,364 201,0 364,-163 364,-364 0,-202 -163,-365 -364,-365z"/>
  <path class="fil3" d="M8952 23100l0 897 299 0c124,0 229,-43 317,-131 88,-88 132,-194 132,-317 0,-124 -44,-229 -132,-317 -88,-88 -193,-132 -317,-132l-299 0zm0 1000l0 795 -299 0 0 -2094 598 0c206,0 382,73 529,220 146,145 219,322 219,528 0,206 -73,382 -219,528 -77,78 -163,135 -258,172l646 646 -422 0 -794 -795zm2156 496c207,0 383,-73 529,-219 146,-146 219,-322 219,-529 0,-206 -73,-382 -219,-528 -146,-147 -322,-220 -529,-220 -206,0 -382,73 -528,220 -146,146 -219,322 -219,528 0,207 73,383 219,529 146,146 322,219 528,219zm0 299c-289,0 -535,-102 -740,-307 -204,-204 -306,-451 -306,-740 0,-289 102,-536 306,-740 205,-204 451,-307 740,-307 289,0 536,103 741,307 204,204 306,451 306,740 0,289 -102,536 -306,740 -205,205 -452,307 -741,307zm2186 -2094l299 0 0 299 -299 0c-206,0 -382,73 -528,220 -146,146 -219,322 -219,528 0,207 73,383 219,529 146,146 322,219 528,219l299 0 0 299 -299 0c-289,0 -536,-102 -740,-307 -204,-204 -306,-451 -306,-740 0,-289 102,-536 306,-740 204,-204 451,-307 740,-307zm737 1216l0 878 -299 0 0 -2094 299 0 0 794 795 -794 421 0 -792 793 749 1301 -346 0 -623 -1081 -204 203zm2393 279l-1196 0 0 -299 1196 0 0 299zm150 -1495l598 0c206,0 382,73 529,220 146,145 219,322 219,528 0,206 -73,383 -219,529 -147,146 -323,218 -529,218l-299 0 0 599 -299 0 0 -2094zm299 299l0 897 299 0c123,0 229,-43 317,-131 88,-88 131,-194 131,-317 0,-124 -43,-229 -131,-317 -88,-88 -194,-132 -317,-132l-299 0zm1139 1795l-310 0 704 -2539 705 2539 -310 0 -395 -1385 -394 1385zm1136 -2094l598 0c206,0 382,73 529,220 146,145 219,322 219,528 0,206 -73,383 -219,529 -147,146 -323,218 -529,218l-299 0 0 599 -299 0 0 -2094zm299 299l0 897 299 0c124,0 229,-43 317,-131 88,-88 132,-194 132,-317 0,-124 -44,-229 -132,-317 -88,-88 -193,-132 -317,-132l-299 0zm2490 -299l0 299 -1047 0 0 897 1047 0 0 299 -1047 0 0 300 1047 0 0 299 -1346 0 0 -2094 1346 0zm448 299l0 897 299 0c124,0 230,-43 317,-131 88,-88 132,-194 132,-317 0,-124 -44,-229 -132,-317 -87,-88 -193,-132 -317,-132l-299 0zm0 1000l0 795 -299 0 0 -2094 598 0c207,0 383,73 529,220 146,145 219,322 219,528 0,206 -73,382 -218,528 -78,78 -164,135 -259,172l646 646 -421 0 -795 -795zm2393 196l-1196 0 0 -299 1196 0 0 299zm748 -1495c165,0 307,59 423,175 117,117 175,258 175,423l-299 0c0,-82 -29,-153 -88,-211 -58,-59 -129,-88 -211,-88 -83,0 -153,29 -212,88 -58,58 -87,129 -87,211 0,130 149,247 448,352 299,105 449,286 449,545 0,166 -58,307 -175,424 -116,116 -258,175 -423,175 -166,0 -307,-59 -423,-175 -117,-117 -175,-258 -175,-424l299 0c0,83 29,154 87,212 59,59 129,88 212,88 82,0 153,-29 211,-88 59,-58 88,-129 88,-212 0,-129 -150,-246 -449,-351 -299,-104 -448,-286 -448,-546 0,-165 58,-306 175,-423 116,-116 257,-175 423,-175zm1677 0l300 0 0 299 -300 0c-206,0 -382,73 -528,220 -146,146 -219,322 -219,528 0,207 73,383 219,529 146,146 322,219 528,219l300 0 0 299 -300 0c-289,0 -535,-102 -740,-307 -204,-204 -306,-451 -306,-740 0,-289 102,-536 306,-740 205,-204 451,-307 740,-307zm737 2094l-299 0 0 -2094 299 0 0 2094zm727 -2094c166,0 307,59 423,175 117,117 175,258 175,423l-299 0c0,-82 -29,-153 -88,-211 -58,-59 -128,-88 -211,-88 -82,0 -153,29 -212,88 -58,58 -87,129 -87,211 0,130 150,247 449,352 299,105 448,286 448,545 0,166 -58,307 -175,424 -116,116 -257,175 -423,175 -165,0 -307,-59 -423,-175 -117,-117 -175,-258 -175,-424l299 0c0,83 29,154 87,212 59,59 130,88 212,88 83,0 153,-29 211,-88 59,-58 88,-129 88,-212 0,-129 -149,-246 -448,-351 -299,-104 -449,-286 -449,-546 0,-165 58,-306 175,-423 116,-116 258,-175 423,-175zm1289 0c165,0 307,59 423,175 117,117 175,258 175,423l-299 0c0,-82 -29,-153 -88,-211 -58,-59 -128,-88 -211,-88 -83,0 -153,29 -212,88 -58,58 -87,129 -87,211 0,130 149,247 448,352 300,105 449,286 449,545 0,166 -58,307 -175,424 -116,116 -258,175 -423,175 -165,0 -307,-59 -423,-175 -117,-117 -175,-258 -175,-424l299 0c0,83 29,154 87,212 59,59 129,88 212,88 83,0 153,-29 211,-88 59,-58 88,-129 88,-212 0,-129 -150,-246 -449,-351 -299,-104 -448,-286 -448,-546 0,-165 58,-306 175,-423 116,-116 258,-175 423,-175zm1678 1795c206,0 382,-73 528,-219 146,-146 219,-322 219,-529 0,-206 -73,-382 -219,-528 -146,-147 -322,-220 -528,-220 -207,0 -383,73 -529,220 -146,146 -219,322 -219,528 0,207 73,383 219,529 146,146 322,219 529,219zm0 299c-290,0 -536,-102 -741,-307 -204,-204 -306,-451 -306,-740 0,-289 102,-536 306,-740 205,-204 451,-307 741,-307 288,0 535,103 740,307 204,204 306,451 306,740 0,289 -102,536 -306,740 -205,205 -452,307 -740,307zm1457 -1795l0 897 299 0c124,0 229,-43 317,-131 88,-88 132,-194 132,-317 0,-124 -44,-229 -132,-317 -88,-88 -193,-132 -317,-132l-299 0zm0 1000l0 795 -299 0 0 -2094 598 0c206,0 383,73 529,220 146,145 219,322 219,528 0,206 -73,382 -218,528 -78,78 -164,135 -259,172l646 646 -422 0 -794 -795zm1715 -1299c165,0 307,59 423,175 117,117 175,258 175,423l-299 0c0,-82 -29,-153 -88,-211 -58,-59 -128,-88 -211,-88 -83,0 -153,29 -212,88 -58,58 -87,129 -87,211 0,130 150,247 449,352 299,105 448,286 448,545 0,166 -58,307 -175,424 -116,116 -258,175 -423,175 -165,0 -307,-59 -423,-175 -117,-117 -175,-258 -175,-424l299 0c0,83 29,154 87,212 59,59 129,88 212,88 83,0 153,-29 211,-88 59,-58 88,-129 88,-212 0,-129 -149,-246 -448,-351 -300,-104 -449,-286 -449,-546 0,-165 58,-306 175,-423 116,-116 258,-175 423,-175z"/>
 </g>
</svg>
