<?xml version="1.0" encoding="UTF-8"?>
<!DOCTYPE svg PUBLIC "-//W3C//DTD SVG 1.1//EN" "http://www.w3.org/Graphics/SVG/1.1/DTD/svg11.dtd">
<!-- Creator: CorelDRAW X8 -->
<svg xmlns="http://www.w3.org/2000/svg" xml:space="preserve" width="420mm" height="297mm" version="1.1" style="shape-rendering:geometricPrecision; text-rendering:geometricPrecision; image-rendering:optimizeQuality; fill-rule:evenodd; clip-rule:evenodd"
viewBox="0 0 42000 29700"
 xmlns:xlink="http://www.w3.org/1999/xlink">
 <defs>
  <style type="text/css">
   <![CDATA[
    .fil1 {fill:#4D4D4D}
    .fil0 {fill:gray}
    .fil2 {fill:#E6E6E6}
   ]]>
  </style>
 </defs>
 <g id="Camada_x0020_1">
  <metadata id="CorelCorpID_0Corel-Layer"/>
  <path class="fil0" d="M27255 18271c-474,-243 -703,-793 -543,-1301 160,-508 663,-827 1191,-755l926 -1800 -926 -1800c-528,71 -1031,-247 -1191,-755 -160,-508 69,-1058 543,-1301 474,-244 1054,-111 1374,314 320,426 287,1020 -78,1408l688 1337 4225 -8213 -15937 0 7611 13265 -6767 4754 15093 0 -4225 -8212 -688 1337c365,387 398,982 78,1407 -320,426 -900,559 -1374,315z"/>
  <path class="fil1" d="M15963 7640l-5786 10277 -1719 -4087 7505 -6190zm1564 -2235l-9951 8207 2003 4766 8792 5046 6767 -4754 -7611 -13265zm-6499 12486l2869 -5095 3177 5187 -6046 -92zm6909 105l-3305 -5396 4958 -2135 4374 7623 -6027 -92zm1287 -8168l-4827 2080 2982 -5296 1845 3216zm-7747 8799l12190 186 -5335 3748 -6855 -3934z"/>
  <path class="fil2" d="M27755 11166c-201,0 -364,164 -364,365 0,201 163,364 364,364 202,0 365,-163 365,-364 0,-201 -163,-365 -365,-365z"/>
  <path class="fil2" d="M27755 16934c-201,0 -364,164 -364,365 0,201 163,364 364,364 202,0 365,-163 365,-364 0,-201 -163,-365 -365,-365z"/>
  <path class="fil1" d="M27755 11166c-201,0 -364,164 -364,365 0,201 163,364 364,364 202,0 365,-163 365,-364 0,-201 -163,-365 -365,-365z"/>
  <path class="fil1" d="M27755 16934c-201,0 -364,164 -364,365 0,201 163,364 364,364 202,0 365,-163 365,-364 0,-201 -163,-365 -365,-365z"/>
 </g>
</svg>
