<?xml version="1.0" encoding="UTF-8"?>
<!DOCTYPE svg PUBLIC "-//W3C//DTD SVG 1.1//EN" "http://www.w3.org/Graphics/SVG/1.1/DTD/svg11.dtd">
<!-- Creator: CorelDRAW X8 -->
<svg xmlns="http://www.w3.org/2000/svg" xml:space="preserve" width="651.933mm" height="169.333mm" version="1.1" style="shape-rendering:geometricPrecision; text-rendering:geometricPrecision; image-rendering:optimizeQuality; fill-rule:evenodd; clip-rule:evenodd"
viewBox="0 0 65193 16933"
 xmlns:xlink="http://www.w3.org/1999/xlink">
 <defs>
  <style type="text/css">
   <![CDATA[
    .fil1 {fill:#4D4D4D}
    .fil0 {fill:gray}
    .fil2 {fill:#E6E6E6}
    .fil3 {fill:#4D4D4D;fill-rule:nonzero}
   ]]>
  </style>
 </defs>
 <g id="Camada_x0020_1">
  <metadata id="CorelCorpID_0Corel-Layer"/>
  <path class="fil0" d="M11722 10868c-262,-135 -388,-439 -300,-719 88,-281 366,-457 658,-417l511 -995 -511 -995c-292,40 -570,-136 -658,-417 -88,-280 38,-584 300,-719 262,-134 582,-61 759,174 177,236 159,564 -43,778l380 739 2334 -4537 -8805 0 4205 7328 -3738 2626 8338 0 -2334 -4537 -380 739c202,214 220,542 43,778 -177,235 -497,308 -759,174z"/>
  <path class="fil1" d="M5483 4994l-3196 5678 -950 -2258 4146 -3420zm864 -1234l-5497 4534 1107 2632 4857 2788 3738 -2626 -4205 -7328zm-3590 6897l1585 -2815 1755 2866 -3340 -51zm3817 58l-1826 -2981 2739 -1179 2417 4211 -3330 -51zm711 -4512l-2667 1149 1648 -2926 1019 1777zm-4280 4861l6735 103 -2948 2071 -3787 -2174z"/>
  <path class="fil2" d="M11998 6942c-111,0 -201,90 -201,202 0,111 90,201 201,201 111,0 202,-90 202,-201 0,-112 -91,-202 -202,-202z"/>
  <path class="fil2" d="M11998 10129c-111,0 -201,90 -201,201 0,112 90,202 201,202 111,0 202,-90 202,-202 0,-111 -91,-201 -202,-201z"/>
  <path class="fil1" d="M11998 6942c-111,0 -201,90 -201,202 0,111 90,201 201,201 111,0 202,-90 202,-201 0,-112 -91,-202 -202,-202z"/>
  <path class="fil1" d="M11998 10129c-111,0 -201,90 -201,201 0,112 90,202 201,202 111,0 202,-90 202,-202 0,-111 -91,-201 -202,-201z"/>
  <path class="fil3" d="M16292 7483l0 1505 502 0c207,0 385,-74 532,-221 147,-147 221,-325 221,-532 0,-207 -74,-384 -221,-532 -147,-147 -325,-220 -532,-220l-502 0zm0 1678l0 1332 -501 0 0 -3512 1003 0c346,0 641,122 887,368 245,245 368,540 368,886 0,347 -123,642 -367,886 -130,131 -275,226 -434,288l1084 1084 -707 0 -1333 -1332zm3618 830c346,0 641,-122 886,-367 246,-245 369,-540 369,-887 0,-346 -123,-641 -369,-886 -245,-246 -540,-368 -886,-368 -347,0 -642,122 -887,368 -245,245 -367,540 -367,886 0,347 122,642 367,887 245,245 540,367 887,367zm0 502c-485,0 -899,-171 -1242,-514 -343,-343 -514,-757 -514,-1242 0,-485 171,-899 514,-1242 343,-342 757,-514 1242,-514 485,0 899,172 1242,514 342,343 514,757 514,1242 0,485 -172,899 -514,1242 -343,343 -757,514 -1242,514zm3668 -3512l501 0 0 502 -501 0c-347,0 -643,122 -888,368 -244,245 -367,540 -367,886 0,347 123,642 367,887 245,245 541,367 888,367l501 0 0 502 -501 0c-486,0 -900,-171 -1242,-514 -343,-343 -515,-757 -515,-1242 0,-485 172,-899 515,-1242 342,-342 756,-514 1242,-514zm1236 2039l0 1473 -502 0 0 -3512 502 0 0 1332 1332 -1332 708 0 -1330 1330 1257 2182 -580 0 -1046 -1813 -341 340zm4014 470l-2007 0 0 -502 2007 0 0 502zm251 -2509l1004 0c346,0 641,122 887,368 245,245 367,540 367,886 0,347 -122,642 -367,887 -246,245 -541,368 -887,368l-502 0 0 1003 -502 0 0 -3512zm502 502l0 1505 502 0c207,0 384,-74 532,-221 147,-147 221,-325 221,-532 0,-207 -74,-384 -221,-532 -148,-147 -325,-220 -532,-220l-502 0zm1911 3010l-519 0 1181 -4260 1182 4260 -519 0 -663 -2323 -662 2323zm1906 -3512l1004 0c346,0 641,122 887,368 245,245 367,540 367,886 0,347 -122,642 -367,887 -246,245 -541,368 -887,368l-502 0 0 1003 -502 0 0 -3512zm502 502l0 1505 502 0c207,0 384,-74 532,-221 147,-147 221,-325 221,-532 0,-207 -74,-384 -221,-532 -148,-147 -325,-220 -532,-220l-502 0zm4177 -502l0 502 -1756 0 0 1505 1756 0 0 502 -1756 0 0 501 1756 0 0 502 -2258 0 0 -3512 2258 0zm753 502l0 1505 502 0c207,0 384,-74 531,-221 148,-147 221,-325 221,-532 0,-207 -73,-384 -221,-532 -147,-147 -324,-220 -531,-220l-502 0zm0 1678l0 1332 -502 0 0 -3512 1004 0c346,0 641,122 887,368 245,245 367,540 367,886 0,347 -122,642 -366,886 -131,131 -275,226 -435,288l1085 1084 -708 0 -1332 -1332zm4014 329l-2007 0 0 -502 2007 0 0 502zm1255 -2509c277,0 514,98 710,293 196,197 293,433 293,710l-502 0c0,-138 -48,-257 -147,-354 -97,-99 -216,-147 -354,-147 -139,0 -257,48 -356,147 -97,97 -146,216 -146,354 0,218 251,415 753,590 501,176 752,481 752,916 0,277 -97,514 -293,710 -196,196 -433,293 -710,293 -278,0 -515,-97 -710,-293 -196,-196 -294,-433 -294,-710l502 0c0,138 49,257 146,355 99,98 217,146 356,146 138,0 257,-48 354,-146 99,-98 147,-217 147,-355 0,-218 -250,-414 -752,-589 -502,-176 -753,-482 -753,-917 0,-277 98,-513 294,-710 195,-195 432,-293 710,-293zm2814 0l502 0 0 502 -502 0c-347,0 -642,122 -887,368 -245,245 -367,540 -367,886 0,347 122,642 367,887 245,245 540,367 887,367l502 0 0 502 -502 0c-485,0 -899,-171 -1241,-514 -344,-343 -515,-757 -515,-1242 0,-485 171,-899 515,-1242 342,-342 756,-514 1241,-514zm1237 3512l-502 0 0 -3512 502 0 0 3512zm1219 -3512c278,0 515,98 710,293 196,197 294,433 294,710l-502 0c0,-138 -49,-257 -147,-354 -98,-99 -216,-147 -355,-147 -139,0 -257,48 -355,147 -98,97 -147,216 -147,354 0,218 251,415 753,590 502,176 753,481 753,916 0,277 -98,514 -294,710 -195,196 -432,293 -710,293 -277,0 -515,-97 -710,-293 -196,-196 -293,-433 -293,-710l501 0c0,138 49,257 147,355 98,98 216,146 355,146 139,0 257,-48 355,-146 98,-98 147,-217 147,-355 0,-218 -251,-414 -753,-589 -502,-176 -752,-482 -752,-917 0,-277 97,-513 293,-710 195,-195 433,-293 710,-293zm2162 0c278,0 515,98 710,293 196,197 294,433 294,710l-502 0c0,-138 -49,-257 -147,-354 -98,-99 -216,-147 -355,-147 -138,0 -257,48 -355,147 -98,97 -147,216 -147,354 0,218 251,415 753,590 502,176 753,481 753,916 0,277 -98,514 -294,710 -195,196 -432,293 -710,293 -277,0 -514,-97 -710,-293 -196,-196 -293,-433 -293,-710l501 0c0,138 49,257 147,355 98,98 217,146 355,146 139,0 257,-48 355,-146 98,-98 147,-217 147,-355 0,-218 -251,-414 -753,-589 -501,-176 -752,-482 -752,-917 0,-277 97,-513 293,-710 196,-195 433,-293 710,-293zm2815 3010c346,0 641,-122 886,-367 246,-245 368,-540 368,-887 0,-346 -122,-641 -368,-886 -245,-246 -540,-368 -886,-368 -347,0 -642,122 -887,368 -245,245 -368,540 -368,886 0,347 123,642 368,887 245,245 540,367 887,367zm0 502c-486,0 -899,-171 -1242,-514 -343,-343 -514,-757 -514,-1242 0,-485 171,-899 514,-1242 343,-342 756,-514 1242,-514 484,0 899,172 1241,514 343,343 515,757 515,1242 0,485 -172,899 -515,1242 -342,343 -757,514 -1241,514zm2445 -3010l0 1505 502 0c207,0 385,-74 532,-221 147,-147 221,-325 221,-532 0,-207 -74,-384 -221,-532 -147,-147 -325,-220 -532,-220l-502 0zm0 1678l0 1332 -501 0 0 -3512 1003 0c346,0 642,122 887,368 245,245 368,540 368,886 0,347 -123,642 -367,886 -130,131 -275,226 -434,288l1084 1084 -707 0 -1333 -1332zm2878 -2180c277,0 514,98 709,293 197,197 294,433 294,710l-502 0c0,-138 -48,-257 -147,-354 -98,-99 -216,-147 -354,-147 -139,0 -257,48 -356,147 -97,97 -146,216 -146,354 0,218 251,415 752,590 502,176 753,481 753,916 0,277 -97,514 -294,710 -195,196 -432,293 -709,293 -278,0 -515,-97 -710,-293 -196,-196 -294,-433 -294,-710l502 0c0,138 49,257 146,355 99,98 217,146 356,146 138,0 256,-48 354,-146 99,-98 147,-217 147,-355 0,-218 -251,-414 -752,-589 -502,-176 -753,-482 -753,-917 0,-277 98,-513 294,-710 195,-195 432,-293 710,-293z"/>
 </g>
</svg>
